<svg width="69" height="69" viewBox="0 0 69 69" fill="none" xmlns="http://www.w3.org/2000/svg">
<path d="M19 28.3333H49C49.9167 28.3333 50.6667 29.0833 50.6667 30C50.6667 30.9167 49.9167 31.6667 49 31.6667H19C18.0833 31.6667 17.3333 30.9167 17.3333 30C17.3333 29.0833 18.0833 28.3333 19 28.3333ZM18.1667 20.95C18.7667 21.3 19.5333 21.0833 19.8833 20.4833L20.6667 19.1167L21.4667 20.5C21.8167 21.1 22.5833 21.3 23.1833 20.9667C23.7833 20.6167 23.9833 19.8667 23.65 19.2667L22.8333 17.8667H24.4167C25.1 17.8667 25.6667 17.3 25.6667 16.6167C25.6667 15.9333 25.1 15.3667 24.4167 15.3667H22.8333L23.6167 14C23.9667 13.4 23.7667 12.6333 23.1667 12.2833C22.8762 12.1217 22.5341 12.08 22.2133 12.1672C21.8926 12.2544 21.6186 12.4635 21.45 12.75L20.6667 14.1167L19.8833 12.75C19.7147 12.4635 19.4408 12.2544 19.12 12.1672C18.7992 12.08 18.4571 12.1217 18.1667 12.2833C17.5667 12.6333 17.3667 13.4 17.7167 14L18.5 15.3667H16.9167C16.2333 15.3667 15.6667 15.9333 15.6667 16.6167C15.6667 17.3 16.2333 17.8667 16.9167 17.8667H18.5L17.7 19.25C17.3667 19.85 17.5667 20.6167 18.1667 20.95ZM31.5 20.95C32.1 21.3 32.8667 21.0833 33.2167 20.4833L34 19.1167L34.8 20.5C35.15 21.1 35.9167 21.3 36.5167 20.9667C37.1167 20.6167 37.3167 19.8667 36.9833 19.2667L36.1833 17.8833H37.7667C38.45 17.8833 39.0167 17.3167 39.0167 16.6333C39.0167 15.95 38.45 15.3833 37.7667 15.3833H36.1667L36.95 14.0167C37.1148 13.7286 37.16 13.3874 37.0759 13.0664C36.9917 12.7453 36.7849 12.4701 36.5 12.3C36.3588 12.2179 36.2029 12.1644 36.041 12.1426C35.8792 12.1208 35.7146 12.1311 35.5568 12.1729C35.3989 12.2146 35.2508 12.2871 35.121 12.3862C34.9911 12.4852 34.8821 12.6088 34.8 12.75L34 14.1167L33.2167 12.75C33.1352 12.6082 33.0265 12.4839 32.8967 12.3843C32.7669 12.2848 32.6187 12.212 32.4606 12.1702C32.3025 12.1283 32.1376 12.1182 31.9756 12.1405C31.8136 12.1628 31.6576 12.217 31.5167 12.3C30.9167 12.65 30.7167 13.4167 31.0667 14.0167L31.85 15.3833H30.25C30.0866 15.3811 29.9245 15.4114 29.7729 15.4724C29.6213 15.5334 29.4834 15.6239 29.3671 15.7386C29.2508 15.8534 29.1585 15.9901 29.0954 16.1408C29.0324 16.2915 29 16.4533 29 16.6167C29 17.3 29.5667 17.8667 30.25 17.8667H31.8333L31.0333 19.25C30.7 19.85 30.9 20.6167 31.5 20.95ZM52.3333 16.6167C52.3333 15.9333 51.7667 15.3667 51.0833 15.3667H49.5L50.2833 14C50.4482 13.712 50.4934 13.3707 50.4092 13.0497C50.3251 12.7287 50.1183 12.4535 49.8333 12.2833C49.6922 12.2012 49.5362 12.1478 49.3744 12.1259C49.2125 12.1041 49.048 12.1144 48.8901 12.1562C48.7323 12.198 48.5842 12.2705 48.4543 12.3695C48.3245 12.4685 48.2154 12.5921 48.1333 12.7333L47.3333 14.1167L46.55 12.75C46.4686 12.6082 46.3598 12.4839 46.23 12.3843C46.1003 12.2848 45.952 12.212 45.7939 12.1702C45.6358 12.1283 45.471 12.1182 45.309 12.1405C45.1469 12.1628 44.9909 12.217 44.85 12.3C44.25 12.65 44.05 13.4167 44.4 14.0167L45.1833 15.3833H43.6C43.4354 15.3796 43.2718 15.4086 43.1186 15.4689C42.9654 15.5291 42.8257 15.6193 42.7078 15.7341C42.5898 15.8489 42.496 15.9861 42.4317 16.1377C42.3674 16.2892 42.334 16.4521 42.3333 16.6167C42.3333 17.3 42.9 17.8667 43.5833 17.8667H45.1667L44.3667 19.25C44.2839 19.3918 44.2303 19.5487 44.209 19.7115C44.1877 19.8744 44.1991 20.0398 44.2425 20.1981C44.286 20.3565 44.3607 20.5045 44.4621 20.6336C44.5636 20.7628 44.6898 20.8703 44.8333 20.95C45.4333 21.3 46.2 21.0833 46.55 20.4833L47.3333 19.1167L48.1333 20.5C48.4833 21.1 49.25 21.3 49.85 20.9667C50.45 20.6167 50.65 19.8667 50.3167 19.2667L49.5167 17.8833H51.1C51.7667 17.8667 52.3333 17.3 52.3333 16.6167Z" fill="#FF6464"/>
<path d="M4.8 62.24C3.504 62.24 2.512 61.872 1.824 61.136C1.136 60.4 0.792 59.36 0.792 58.016V49.184C0.792 47.84 1.136 46.8 1.824 46.064C2.512 45.328 3.504 44.96 4.8 44.96C6.096 44.96 7.088 45.328 7.776 46.064C8.464 46.8 8.808 47.84 8.808 49.184V58.016C8.808 59.36 8.464 60.4 7.776 61.136C7.088 61.872 6.096 62.24 4.8 62.24ZM4.8 59.84C5.712 59.84 6.168 59.288 6.168 58.184V49.016C6.168 47.912 5.712 47.36 4.8 47.36C3.888 47.36 3.432 47.912 3.432 49.016V58.184C3.432 59.288 3.888 59.84 4.8 59.84ZM10.5934 45.2H13.9054L16.4734 55.256H16.5214V45.2H18.8734V62H16.1614L12.9934 49.736H12.9454V62H10.5934V45.2ZM20.8356 45.2H28.0356V47.6H23.4756V52.04H27.0996V54.44H23.4756V59.6H28.0356V62H20.8356V45.2Z" fill="#FF6464"/>
<path d="M33.3981 45.2H37.2861C38.5981 45.2 39.5821 45.552 40.2381 46.256C40.8941 46.96 41.2221 47.992 41.2221 49.352V51.008C41.2221 52.368 40.8941 53.4 40.2381 54.104C39.5821 54.808 38.5981 55.16 37.2861 55.16H36.0381V62H33.3981V45.2ZM37.2861 52.76C37.7181 52.76 38.0381 52.64 38.2461 52.4C38.4701 52.16 38.5821 51.752 38.5821 51.176V49.184C38.5821 48.608 38.4701 48.2 38.2461 47.96C38.0381 47.72 37.7181 47.6 37.2861 47.6H36.0381V52.76H37.2861ZM43.8521 45.2H47.4281L50.1641 62H47.5241L47.0441 58.664V58.712H44.0441L43.5641 62H41.1161L43.8521 45.2ZM46.7321 56.432L45.5561 48.128H45.5081L44.3561 56.432H46.7321ZM54.8066 62.24C53.5266 62.24 52.5586 61.88 51.9026 61.16C51.2466 60.424 50.9186 59.376 50.9186 58.016V57.056H53.4146V58.208C53.4146 59.296 53.8706 59.84 54.7826 59.84C55.2306 59.84 55.5666 59.712 55.7906 59.456C56.0306 59.184 56.1506 58.752 56.1506 58.16C56.1506 57.456 55.9906 56.84 55.6706 56.312C55.3506 55.768 54.7586 55.12 53.8946 54.368C52.8066 53.408 52.0466 52.544 51.6146 51.776C51.1826 50.992 50.9666 50.112 50.9666 49.136C50.9666 47.808 51.3026 46.784 51.9746 46.064C52.6466 45.328 53.6226 44.96 54.9026 44.96C56.1666 44.96 57.1186 45.328 57.7586 46.064C58.4146 46.784 58.7426 47.824 58.7426 49.184V49.88H56.2466V49.016C56.2466 48.44 56.1346 48.024 55.9106 47.768C55.6866 47.496 55.3586 47.36 54.9266 47.36C54.0466 47.36 53.6066 47.896 53.6066 48.968C53.6066 49.576 53.7666 50.144 54.0866 50.672C54.4226 51.2 55.0226 51.84 55.8866 52.592C56.9906 53.552 57.7506 54.424 58.1666 55.208C58.5826 55.992 58.7906 56.912 58.7906 57.968C58.7906 59.344 58.4466 60.4 57.7586 61.136C57.0866 61.872 56.1026 62.24 54.8066 62.24ZM63.7363 62.24C62.4563 62.24 61.4883 61.88 60.8323 61.16C60.1763 60.424 59.8483 59.376 59.8483 58.016V57.056H62.3443V58.208C62.3443 59.296 62.8003 59.84 63.7123 59.84C64.1603 59.84 64.4963 59.712 64.7203 59.456C64.9603 59.184 65.0803 58.752 65.0803 58.16C65.0803 57.456 64.9203 56.84 64.6003 56.312C64.2803 55.768 63.6883 55.12 62.8243 54.368C61.7363 53.408 60.9763 52.544 60.5443 51.776C60.1123 50.992 59.8963 50.112 59.8963 49.136C59.8963 47.808 60.2323 46.784 60.9043 46.064C61.5763 45.328 62.5523 44.96 63.8323 44.96C65.0963 44.96 66.0483 45.328 66.6883 46.064C67.3443 46.784 67.6723 47.824 67.6723 49.184V49.88H65.1763V49.016C65.1763 48.44 65.0643 48.024 64.8403 47.768C64.6163 47.496 64.2883 47.36 63.8563 47.36C62.9763 47.36 62.5363 47.896 62.5363 48.968C62.5363 49.576 62.6963 50.144 63.0163 50.672C63.3523 51.2 63.9523 51.84 64.8163 52.592C65.9203 53.552 66.6803 54.424 67.0963 55.208C67.5123 55.992 67.7203 56.912 67.7203 57.968C67.7203 59.344 67.3763 60.4 66.6883 61.136C66.0163 61.872 65.0323 62.24 63.7363 62.24Z" fill="#545974"/>
</svg>
