<svg width="37" height="20" viewBox="0 0 37 20" fill="none" xmlns="http://www.w3.org/2000/svg">
<path d="M33.333 16.2191C34.2496 16.2191 34.9998 16.9686 35 17.8851C35 18.8018 34.2497 19.5521 33.333 19.5521H3.33301C2.41634 19.5521 1.66602 18.8018 1.66602 17.8851C1.66621 16.9686 2.41646 16.2191 3.33301 16.2191H33.333ZM6.5459 0.0531006C6.86666 -0.0340968 7.20956 0.00763958 7.5 0.169312C8.09962 0.519419 8.29907 1.28529 7.94922 1.88513L7.16602 3.25232H8.75C9.43319 3.2525 10 3.81909 10 4.50232C9.99991 5.18547 9.43314 5.75214 8.75 5.75232H7.16602L7.9834 7.15173C8.31668 7.75164 8.11637 8.50186 7.5166 8.85193C6.9166 9.18526 6.1498 8.98513 5.7998 8.38513L5 7.00232L4.2168 8.36853C3.86683 8.96847 3.09997 9.18519 2.5 8.83533C1.9 8.50199 1.69987 7.73513 2.0332 7.13513L2.83301 5.75232H1.25C0.566719 5.75232 8.76367e-05 5.18558 0 4.50232C0 3.81899 0.566667 3.25232 1.25 3.25232H2.83301L2.0498 1.88513C1.69998 1.28516 1.90007 0.51927 2.5 0.169312C2.79043 0.00765915 3.13238 -0.0340926 3.45312 0.0531006C3.77377 0.140325 4.04822 0.348768 4.2168 0.635132L5 2.00232L5.7832 0.635132C5.95174 0.349004 6.22549 0.140346 6.5459 0.0531006ZM16.3086 0.0257568C16.4706 0.00347021 16.6358 0.0141786 16.7939 0.0560303C16.9519 0.0978868 17.0999 0.1705 17.2295 0.269897C17.3592 0.369377 17.4684 0.493378 17.5498 0.635132L18.333 2.00232L19.1328 0.635132C19.2149 0.494035 19.3243 0.37083 19.4541 0.271851C19.5839 0.172833 19.7318 0.0997731 19.8896 0.0579834C20.0475 0.0162021 20.2122 0.00590823 20.374 0.02771C20.5359 0.0495251 20.6918 0.103817 20.833 0.185913C21.1178 0.356027 21.325 0.630671 21.4092 0.951538C21.4933 1.27242 21.4478 1.61377 21.2832 1.90173L20.5 3.26892H22.0996C22.7829 3.26892 23.3496 3.83559 23.3496 4.51892C23.3496 5.20221 22.7829 5.76892 22.0996 5.76892H20.5166L21.3164 7.15173C21.6497 7.75172 21.4496 8.50192 20.8496 8.85193C20.2496 9.18526 19.4828 8.98513 19.1328 8.38513L18.333 7.00232L17.5498 8.36853C17.1998 8.96853 16.433 9.18533 15.833 8.83533C15.2331 8.50197 15.0329 7.73511 15.3662 7.13513L16.166 5.75232H14.583C13.8997 5.75232 13.3331 5.18558 13.333 4.50232C13.333 4.33904 13.3658 4.17739 13.4287 4.02673C13.4917 3.87604 13.5839 3.73912 13.7002 3.62439C13.8164 3.50973 13.954 3.41878 14.1055 3.35779C14.257 3.2968 14.4196 3.26671 14.583 3.26892H16.1826L15.3994 1.90173C15.0498 1.30187 15.2499 0.535891 15.8496 0.185913C15.9905 0.102929 16.1466 0.0480437 16.3086 0.0257568ZM33.707 0.0111084C33.8689 0.0329218 34.0249 0.0872267 34.166 0.169312C34.4509 0.339413 34.658 0.614009 34.7422 0.934937C34.8263 1.25589 34.7809 1.59713 34.6162 1.88513L33.833 3.25232H35.416C36.0993 3.25232 36.666 3.81899 36.666 4.50232C36.6659 5.18558 36.0992 5.75226 35.4326 5.76892H33.8496L34.6494 7.15173C34.9827 7.75173 34.7826 8.50193 34.1826 8.85193C33.5826 9.18511 32.8168 8.98506 32.4668 8.38513L31.666 7.00232L30.8828 8.36853C30.5328 8.96853 29.766 9.18533 29.166 8.83533C29.0226 8.75566 28.8963 8.64794 28.7949 8.51892C28.6936 8.38986 28.6186 8.24162 28.5752 8.08337C28.5318 7.92513 28.5207 7.75975 28.542 7.59705C28.5633 7.43423 28.6165 7.27695 28.6992 7.13513L29.5 5.75232H27.916C27.2329 5.75214 26.6661 5.18547 26.666 4.50232C26.6666 4.33771 26.7004 4.17436 26.7646 4.02283C26.8289 3.8714 26.9231 3.73427 27.041 3.61951C27.1588 3.50488 27.2982 3.41506 27.4512 3.35486C27.6042 3.29468 27.7682 3.26521 27.9326 3.26892H29.5166L28.7334 1.90173C28.3836 1.30191 28.583 0.536012 29.1826 0.185913C29.3235 0.102983 29.4797 0.0480709 29.6416 0.0257568C29.8036 0.00347021 29.9688 0.0141786 30.127 0.0560303C30.285 0.0978865 30.4337 0.17039 30.5635 0.269897C30.693 0.369306 30.8015 0.493543 30.8828 0.635132L31.666 2.00232L32.4668 0.61853C32.5488 0.477616 32.6575 0.354144 32.7871 0.255249C32.9169 0.156299 33.0649 0.0831848 33.2227 0.0413818C33.3804 -0.000372453 33.5453 -0.0106379 33.707 0.0111084Z" fill="#FF6464"/>
</svg>
