<svg width="24" height="24" viewBox="0 0 24 24" fill="none" xmlns="http://www.w3.org/2000/svg">
<g clip-path="url(#clip0_19_1280)">
<path d="M17 3H21C21.2652 3 21.5196 3.10536 21.7071 3.29289C21.8946 3.48043 22 3.73478 22 4V20C22 20.2652 21.8946 20.5196 21.7071 20.7071C21.5196 20.8946 21.2652 21 21 21H3C2.73478 21 2.48043 20.8946 2.29289 20.7071C2.10536 20.5196 2 20.2652 2 20V4C2 3.73478 2.10536 3.48043 2.29289 3.29289C2.48043 3.10536 2.73478 3 3 3H7V2C7 1.44772 7.44772 1 8 1C8.55228 1 9 1.44772 9 2V3H15V2C15 1.44772 15.4477 1 16 1C16.5523 1 17 1.44772 17 2V3ZM15 5H9V6C9 6.55228 8.55228 7 8 7C7.44772 7 7 6.55228 7 6V5H4.5C4.22386 5 4 5.22386 4 5.5V9H20V5.5C20 5.22386 19.7761 5 19.5 5H17V6C17 6.55228 16.5523 7 16 7C15.4477 7 15 6.55228 15 6V5ZM20 11H4V18.5C4 18.7761 4.22386 19 4.5 19H19.5C19.7761 19 20 18.7761 20 18.5V11Z" fill="#545974"/>
</g>
<defs>
<clipPath id="clip0_19_1280">
<rect width="24" height="24" fill="white"/>
</clipPath>
</defs>
</svg>
