<svg width="24" height="24" viewBox="0 0 24 24" fill="none" xmlns="http://www.w3.org/2000/svg">
<g clip-path="url(#clip0_19_1308)">
<path d="M6.20689 16C6.3395 16 6.46668 15.9473 6.56045 15.8536L16.2024 6.21158C16.3977 6.01631 16.3977 5.69973 16.2024 5.50447L15.4956 4.79758C15.3003 4.60231 14.9837 4.60231 14.7884 4.79758L5.14645 14.4396C5.05268 14.5333 5 14.6605 5 14.7931V16H6.20689ZM7.38945 17.8536C7.29568 17.9473 7.1685 18 7.03589 18H3.5C3.22386 18 3 17.7762 3 17.5V13.9641C3 13.8315 3.05268 13.7043 3.14645 13.6106L14.435 2.32202C14.6225 2.13455 14.8768 2.02924 15.142 2.02924C15.4072 2.02924 15.6615 2.13455 15.849 2.32202L18.678 5.15102C18.8655 5.33855 18.9708 5.59286 18.9708 5.85802C18.9708 6.12319 18.8655 6.37749 18.678 6.56502L7.38945 17.8536ZM3 21C3 20.4477 3.44772 20 4 20H20C20.5523 20 21 20.4477 21 21C21 21.5523 20.5523 22 20 22H4C3.44772 22 3 21.5523 3 21Z" fill="#545974"/>
</g>
<defs>
<clipPath id="clip0_19_1308">
<rect width="24" height="24" fill="white"/>
</clipPath>
</defs>
</svg>
