<svg width="24" height="24" viewBox="0 0 24 24" fill="none" xmlns="http://www.w3.org/2000/svg">
<g clip-path="url(#clip0_6_113)">
<path d="M21 20C21 20.2652 20.8946 20.5196 20.7071 20.7071C20.5196 20.8946 20.2652 21 20 21H4C3.73478 21 3.48043 20.8946 3.29289 20.7071C3.10536 20.5196 3 20.2652 3 20V9.49C2.99989 9.33761 3.03462 9.18722 3.10152 9.0503C3.16841 8.91338 3.26572 8.79356 3.386 8.7L11.386 2.478C11.5615 2.34144 11.7776 2.26731 12 2.26731C12.2224 2.26731 12.4385 2.34144 12.614 2.478L20.614 8.7C20.7343 8.79356 20.8316 8.91338 20.8985 9.0503C20.9654 9.18722 21.0001 9.33761 21 9.49V20ZM18.5 19C18.7761 19 19 18.7761 19 18.5V10.2226C19 10.0683 18.9288 9.92259 18.807 9.82786L12.307 4.77272C12.1264 4.63231 11.8736 4.63231 11.693 4.77272L5.19305 9.82786C5.07124 9.92259 5 10.0683 5 10.2226V18.5C5 18.7761 5.22386 19 5.5 19H18.5ZM7 16C7 15.4477 7.44772 15 8 15H16C16.5523 15 17 15.4477 17 16C17 16.5523 16.5523 17 16 17H8C7.44772 17 7 16.5523 7 16Z" fill="#545974"/>
</g>
<defs>
<clipPath id="clip0_6_113">
<rect width="24" height="24" fill="white"/>
</clipPath>
</defs>
</svg>
