<svg width="24" height="24" viewBox="0 0 24 24" fill="none" xmlns="http://www.w3.org/2000/svg">
<g clip-path="url(#clip0_19_1269)">
<path d="M18.364 14.121C17.9735 14.5115 17.3405 14.5115 16.95 14.121C16.5595 13.7305 16.5595 13.0975 16.95 12.707L17.657 12C18.0284 11.6286 18.3231 11.1876 18.5241 10.7023C18.7251 10.217 18.8286 9.69681 18.8286 9.1715C18.8286 8.6462 18.7251 8.12605 18.5241 7.64073C18.3231 7.15542 18.0284 6.71445 17.657 6.343C17.2856 5.97156 16.8446 5.67691 16.3593 5.47589C15.874 5.27487 15.3538 5.1714 14.8285 5.1714C14.3032 5.1714 13.783 5.27487 13.2977 5.47589C12.8124 5.67691 12.3714 5.97156 12 6.343L11.293 7.05C10.9025 7.44047 10.2695 7.44047 9.879 7.05C9.48853 6.65954 9.48853 6.02647 9.879 5.636L10.586 4.929C11.7143 3.81892 13.2356 3.19966 14.8184 3.2061C16.4012 3.21255 17.9174 3.84418 19.0366 4.96341C20.1558 6.08265 20.7875 7.5988 20.7939 9.18162C20.8003 10.7644 20.1811 12.2857 19.071 13.414L18.364 14.121ZM14.121 16.95C14.5115 17.3405 14.5115 17.9735 14.121 18.364L13.414 19.071C12.8585 19.6356 12.1967 20.0846 11.4669 20.3922C10.737 20.6998 9.95341 20.8598 9.16138 20.863C8.36934 20.8662 7.58451 20.7126 6.85214 20.411C6.11977 20.1094 5.45437 19.6658 4.89431 19.1057C4.33425 18.5456 3.89062 17.8802 3.58901 17.1479C3.2874 16.4155 3.13377 15.6307 3.137 14.8386C3.14022 14.0466 3.30023 13.263 3.6078 12.5331C3.91536 11.8033 4.3644 11.1415 4.929 10.586L5.636 9.879C6.02646 9.48854 6.65953 9.48854 7.05 9.879C7.44046 10.2695 7.44046 10.9025 7.05 11.293L6.343 12C5.97155 12.3714 5.67691 12.8124 5.47589 13.2977C5.27486 13.783 5.1714 14.3032 5.1714 14.8285C5.1714 15.3538 5.27486 15.874 5.47589 16.3593C5.67691 16.8446 5.97155 17.2856 6.343 17.657C6.71444 18.0284 7.15541 18.3231 7.64072 18.5241C8.12604 18.7251 8.6462 18.8286 9.1715 18.8286C9.6968 18.8286 10.217 18.7251 10.7023 18.5241C11.1876 18.3231 11.6286 18.0284 12 17.657L12.707 16.95C13.0975 16.5595 13.7305 16.5595 14.121 16.95ZM14.1209 8.46411C14.5114 8.07359 15.1449 8.07395 15.5355 8.46448C15.926 8.85502 15.9264 9.48859 15.5358 9.87911L9.87885 15.5352C9.48842 15.9256 8.85532 15.9255 8.46477 15.5353C8.07401 15.1448 8.07373 14.5113 8.46435 14.1206L14.1209 8.46411Z" fill="#545974"/>
</g>
<defs>
<clipPath id="clip0_19_1269">
<rect width="24" height="24" fill="white"/>
</clipPath>
</defs>
</svg>
