<svg width="24" height="24" viewBox="0 0 24 24" fill="none" xmlns="http://www.w3.org/2000/svg">
<g clip-path="url(#clip0_19_1288)">
<path d="M18 8H20C20.2652 8 20.5196 8.10536 20.7071 8.29289C20.8946 8.48043 21 8.73478 21 9V21C21 21.2652 20.8946 21.5196 20.7071 21.7071C20.5196 21.8946 20.2652 22 20 22H4C3.73478 22 3.48043 21.8946 3.29289 21.7071C3.10536 21.5196 3 21.2652 3 21V9C3 8.73478 3.10536 8.48043 3.29289 8.29289C3.48043 8.10536 3.73478 8 4 8H6V7C6 5.4087 6.63214 3.88258 7.75736 2.75736C8.88258 1.63214 10.4087 1 12 1C13.5913 1 15.1174 1.63214 16.2426 2.75736C17.3679 3.88258 18 5.4087 18 7V8ZM5.5 10C5.22386 10 5 10.2239 5 10.5V19.5C5 19.7761 5.22386 20 5.5 20H18.5C18.7761 20 19 19.7761 19 19.5V10.5C19 10.2239 18.7761 10 18.5 10H5.5ZM11 15C11 14.4477 11.4477 14 12 14C12.5523 14 13 14.4477 13 15C13 15.5523 12.5523 16 12 16C11.4477 16 11 15.5523 11 15ZM7 15C7 14.4477 7.44772 14 8 14C8.55228 14 9 14.4477 9 15C9 15.5523 8.55228 16 8 16C7.44772 16 7 15.5523 7 15ZM15 15C15 14.4477 15.4477 14 16 14C16.5523 14 17 14.4477 17 15C17 15.5523 16.5523 16 16 16C15.4477 16 15 15.5523 15 15ZM16 8V7C16 5.93913 15.5786 4.92172 14.8284 4.17157C14.0783 3.42143 13.0609 3 12 3C10.9391 3 9.92172 3.42143 9.17157 4.17157C8.42143 4.92172 8 5.93913 8 7V8H16Z" fill="#545974"/>
</g>
<defs>
<clipPath id="clip0_19_1288">
<rect width="24" height="24" fill="white"/>
</clipPath>
</defs>
</svg>
