<svg width="24" height="24" viewBox="0 0 24 24" fill="none" xmlns="http://www.w3.org/2000/svg">
<g clip-path="url(#clip0_25_473)">
<path d="M5 22C4.73478 22 4.48043 21.8946 4.29289 21.7071C4.10536 21.5196 4 21.2652 4 21V3C4 2.73478 4.10536 2.48043 4.29289 2.29289C4.48043 2.10536 4.73478 2 5 2H19C19.2652 2 19.5196 2.10536 19.7071 2.29289C19.8946 2.48043 20 2.73478 20 3V5C20 5.55228 19.5523 6 19 6C18.4477 6 18 5.55228 18 5V4.5C18 4.22386 17.7761 4 17.5 4H6.5C6.22386 4 6 4.22386 6 4.5V19.5C6 19.7761 6.22386 20 6.5 20H17.5C17.7761 20 18 19.7761 18 19.5V19C18 18.4477 18.4477 18 19 18C19.5523 18 20 18.4477 20 19V21C20 21.2652 19.8946 21.5196 19.7071 21.7071C19.5196 21.8946 19.2652 22 19 22H5ZM18.8123 15.3501C18.485 15.612 18 15.3789 18 14.9597V13H12C11.4477 13 11 12.5523 11 12C11 11.4477 11.4477 11 12 11H18V9.04031C18 8.62106 18.485 8.38797 18.8123 8.64988L22.512 11.6096C22.7622 11.8097 22.7622 12.1903 22.512 12.3904L18.8123 15.3501Z" fill="#545974"/>
</g>
<defs>
<clipPath id="clip0_25_473">
<rect width="24" height="24" fill="white"/>
</clipPath>
</defs>
</svg>
