<svg width="24" height="24" viewBox="0 0 24 24" fill="none" xmlns="http://www.w3.org/2000/svg">
<g clip-path="url(#clip0_14_301)">
<path d="M11 2C15.968 2 20 6.032 20 11C20 15.968 15.968 20 11 20C6.032 20 2 15.968 2 11C2 6.032 6.032 2 11 2ZM11 18C14.867 18 18 14.867 18 11C18 7.132 14.867 4 11 4C7.132 4 4 7.132 4 11C4 14.867 7.132 18 11 18ZM18.778 18.778C19.1685 18.3875 19.8016 18.3874 20.1921 18.7779L21.6066 20.1919C21.9973 20.5824 21.9971 21.2159 21.6065 21.6065C21.2159 21.9971 20.5824 21.9973 20.1919 21.6066L18.7779 20.1921C18.3875 19.8016 18.3875 19.1685 18.778 18.778Z" fill="#545974"/>
</g>
<defs>
<clipPath id="clip0_14_301">
<rect width="24" height="24" fill="white"/>
</clipPath>
</defs>
</svg>
